<svg width="1321" height="286" viewBox="0 0 1321 286" fill="none" xmlns="http://www.w3.org/2000/svg">
<path d="M97.3 110.6C112.933 110.367 124.6 113.283 132.3 119.35C140 125.183 143.85 133.7 143.85 144.9C143.85 155.867 140.467 165.317 133.7 173.25C127.167 180.95 119.117 186.433 109.55 189.7C116.317 196.7 122.383 203.817 127.75 211.05C133.35 218.283 136.15 225.867 136.15 233.8C136.15 249.433 129.967 261.567 117.6 270.2C105.233 278.6 87.9667 282.8 65.8 282.8C43.8667 282.8 27.4167 278.483 16.45 269.85C5.48333 260.983 -4.95464e-07 251.067 -4.95464e-07 240.1C-4.95464e-07 228.9 2.68333 218.75 8.05 209.65C13.65 200.55 19.6 196 25.9 196C29.6333 196 32.3167 197.4 33.95 200.2C35.5833 202.767 38.6167 210.467 43.05 223.3C44.6833 227.967 47.3667 232.4 51.1 236.6C59.7333 246.167 73.3833 250.95 92.05 250.95C89.25 242.083 84.7 234.5 78.4 228.2C72.3333 221.667 66.2667 215.367 60.2 209.3C54.1333 203.233 48.7667 196.817 44.1 190.05C39.4333 183.05 37.1 174.883 37.1 165.55C37.1 148.75 43.4 135.1 56 124.6C67.9 115.267 81.6667 110.6 97.3 110.6ZM95.9 175.35C105.233 165.317 109.9 157.267 109.9 151.2C109.9 148.4 108.85 145.95 106.75 143.85C104.883 141.517 102.083 140.35 98.35 140.35C94.6167 140.35 91 140.817 87.5 141.75C84.2333 142.683 81.55 143.383 79.45 143.85C79.45 152.717 84.9333 163.217 95.9 175.35ZM266.829 132.3C266.829 116.667 278.962 108.85 303.229 108.85C309.295 108.85 313.029 110.833 314.429 114.8C316.062 118.767 316.879 124.833 316.879 133C316.879 144.433 314.312 162.167 309.179 186.2C304.045 210.233 301.595 226.45 301.829 234.85C301.829 238.817 303.112 240.8 305.679 240.8C309.179 240.8 313.495 238.583 318.629 234.15C323.762 229.717 328.895 224.933 334.029 219.8C339.162 214.433 343.829 209.533 348.029 205.1C352.462 200.667 355.495 198.45 357.129 198.45C360.395 198.45 362.029 202.417 362.029 210.35C362.029 226.683 353.979 242.433 337.879 257.6C310.812 273.467 293.662 281.4 286.429 281.4C285.729 281.4 285.145 281.283 284.679 281.05C275.812 281.05 269.512 278.133 265.779 272.3C262.279 266.467 260.062 259.117 259.129 250.25C254.462 258.883 248.045 266.35 239.879 272.65C231.712 278.717 222.379 281.75 211.879 281.75C193.445 281.75 179.212 278.25 169.179 271.25C159.379 264.25 154.479 253.867 154.479 240.1C154.479 234.033 155.295 228.433 156.929 223.3C158.795 218.167 161.712 211.867 165.679 204.4L175.829 118.3C183.062 112.7 193.445 109.9 206.979 109.9C217.712 109.9 223.779 116.9 225.179 130.9C226.345 142.333 225.762 152.6 223.429 161.7C221.329 170.567 218.412 181.883 214.679 195.65C210.945 209.183 209.079 221.2 209.079 231.7C209.079 240.1 214.329 244.3 224.829 244.3C236.262 244.3 246.179 234.267 254.579 214.2C261.112 198.8 265.545 181.65 267.879 162.75C267.645 160.883 267.412 158.55 267.179 155.75C267.179 152.717 267.062 149.8 266.829 147C266.829 144.2 266.829 141.4 266.829 138.6V132.3ZM391.15 105.35C399.55 105.35 407.483 113.4 414.95 129.5C425.916 118.067 439.45 112.35 455.55 112.35C471.883 112.35 484.133 115.967 492.3 123.2C500.466 130.2 504.55 140.233 504.55 153.3C504.55 166.133 502.8 179.2 499.3 192.5C496.033 205.8 493.583 215.367 491.95 221.2C490.55 226.8 489.85 231.467 489.85 235.2C489.85 238.933 491.133 240.8 493.7 240.8C497.2 240.8 501.516 238.583 506.65 234.15C511.783 229.717 516.916 224.933 522.05 219.8C527.183 214.433 531.85 209.533 536.05 205.1C540.483 200.667 543.516 198.45 545.15 198.45C548.416 198.45 550.05 202.417 550.05 210.35C550.05 226.683 542 242.433 525.9 257.6C498.833 273.467 481.566 281.4 474.1 281.4C473.4 281.4 472.933 281.283 472.7 281.05C454.033 281.05 444.7 266.117 444.7 236.25C444.7 223.417 445.866 211.633 448.2 200.9C450.766 190.167 452.633 182.35 453.8 177.45C454.966 172.55 455.55 167.533 455.55 162.4C455.55 154 450.65 149.8 440.85 149.8C431.283 149.8 422.066 157.033 413.2 171.5C404.566 185.733 398.733 200.55 395.7 215.95V218.4C395.7 226.333 396.866 234.5 399.2 242.9C401.766 251.3 403.05 257.133 403.05 260.4C403.05 268.333 393.133 276.15 373.3 283.85C370.266 285.017 367.583 285.6 365.25 285.6C359.416 285.6 355.333 282.567 353 276.5C350.9 270.433 349.85 260.983 349.85 248.15C349.85 215.017 351.133 191.1 353.7 176.4C357.2 154.467 365.133 134.05 377.5 115.15C381.7 108.617 386.25 105.35 391.15 105.35ZM612.388 110.6C628.021 110.367 639.688 113.283 647.388 119.35C655.088 125.183 658.938 133.7 658.938 144.9C658.938 155.867 655.555 165.317 648.788 173.25C642.255 180.95 634.205 186.433 624.638 189.7C631.405 196.7 637.471 203.817 642.838 211.05C648.438 218.283 651.238 225.867 651.238 233.8C651.238 249.433 645.055 261.567 632.688 270.2C620.321 278.6 603.055 282.8 580.888 282.8C558.955 282.8 542.505 278.483 531.538 269.85C520.571 260.983 515.088 251.067 515.088 240.1C515.088 228.9 517.771 218.75 523.138 209.65C528.738 200.55 534.688 196 540.988 196C544.721 196 547.405 197.4 549.038 200.2C550.671 202.767 553.705 210.467 558.138 223.3C559.771 227.967 562.455 232.4 566.188 236.6C574.821 246.167 588.471 250.95 607.138 250.95C604.338 242.083 599.788 234.5 593.488 228.2C587.421 221.667 581.355 215.367 575.288 209.3C569.221 203.233 563.855 196.817 559.188 190.05C554.521 183.05 552.188 174.883 552.188 165.55C552.188 148.75 558.488 135.1 571.088 124.6C582.988 115.267 596.755 110.6 612.388 110.6ZM610.988 175.35C620.321 165.317 624.988 157.267 624.988 151.2C624.988 148.4 623.938 145.95 621.838 143.85C619.971 141.517 617.171 140.35 613.438 140.35C609.705 140.35 606.088 140.817 602.588 141.75C599.321 142.683 596.638 143.383 594.538 143.85C594.538 152.717 600.021 163.217 610.988 175.35ZM789.616 162.4C789.616 154 784.6 149.8 774.566 149.8C764.766 149.8 755.083 157.5 745.516 172.9C735.95 188.067 730 203.583 727.666 219.45C728.133 224.817 728.6 230.183 729.066 235.55C729.533 240.917 729.766 246.167 729.766 251.3C729.766 263.667 725.683 272.067 717.516 276.5C713.783 278.6 710.166 280.583 706.666 282.45C703.4 284.317 699.55 285.25 695.116 285.25C690.683 285.25 686.716 282.333 683.216 276.5C679.95 270.433 678.316 261.1 678.316 248.5C678.316 213.267 680.883 182.7 686.016 156.8C693.95 116.667 709.7 73.7333 733.266 28C736.533 21.7 741.316 18.6667 747.616 18.9C753.916 18.9 759.05 23.2166 763.016 31.85C766.983 40.4833 768.85 47.7167 768.616 53.55C768.616 59.3833 767.683 65.1 765.816 70.7C764.183 76.0666 761.966 81.4333 759.166 86.8C756.6 91.9333 753.566 97.3 750.066 102.9C746.8 108.267 743.533 114.1 740.266 120.4L735.016 145.6C744.116 130.433 756.366 120.283 771.766 115.15C777.366 113.283 783.55 112.35 790.316 112.35C806.183 112.35 818.2 115.967 826.366 123.2C834.533 130.2 838.616 140.233 838.616 153.3C838.616 166.133 836.866 179.2 833.366 192.5C830.1 205.8 827.65 215.367 826.016 221.2C824.616 226.8 823.916 231.467 823.916 235.2C823.916 238.933 825.2 240.8 827.766 240.8C831.266 240.8 835.583 238.583 840.716 234.15C845.85 229.717 850.983 224.933 856.116 219.8C861.25 214.433 865.916 209.533 870.116 205.1C874.55 200.667 877.583 198.45 879.216 198.45C882.483 198.45 884.116 202.417 884.116 210.35C884.116 226.683 876.066 242.433 859.966 257.6C832.9 273.467 815.633 281.4 808.166 281.4C807.466 281.4 807 281.283 806.766 281.05C788.1 281.05 778.766 266.117 778.766 236.25C778.766 223.417 779.933 211.633 782.266 200.9C784.833 190.167 786.7 182.35 787.866 177.45C789.033 172.55 789.616 167.533 789.616 162.4ZM908.523 281.05C885.19 281.05 873.523 259.233 873.523 215.6C873.523 191.8 876.44 170.217 882.273 150.85C891.373 120.983 901.64 106.05 913.073 106.05C919.84 106.05 925.207 110.6 929.173 119.7C932.44 126.7 933.957 133.583 933.723 140.35C933.723 149.683 930.923 166.133 925.323 189.7C919.957 210.233 917.273 222.95 917.273 227.85C917.273 232.75 918.44 236.133 920.773 238C923.34 239.867 926.257 240.8 929.523 240.8C933.023 240.8 937.34 238.583 942.473 234.15C947.607 229.717 952.74 224.933 957.873 219.8C963.007 214.433 967.673 209.533 971.873 205.1C976.307 200.667 979.34 198.45 980.973 198.45C984.24 198.45 985.873 202.417 985.873 210.35C985.873 226.683 977.59 242.667 961.023 258.3C944.69 273.7 927.19 281.283 908.523 281.05ZM922.873 77.7C916.573 68.3667 913.423 58.3333 913.423 47.6C913.423 36.8667 915.057 28 918.323 21C921.823 13.7667 925.09 8.51666 928.123 5.24999C931.157 1.74999 934.657 -4.17233e-06 938.623 -4.17233e-06C945.157 -4.17233e-06 951.107 4.9 956.473 14.7C961.84 24.2667 964.523 32.3167 964.523 38.85C964.523 50.9833 960.207 60.55 951.573 67.55C943.173 74.3167 933.607 77.7 922.873 77.7ZM1014.93 105.35C1023.33 105.35 1031.26 113.4 1038.73 129.5C1049.7 118.067 1063.23 112.35 1079.33 112.35C1095.66 112.35 1107.91 115.967 1116.08 123.2C1124.25 130.2 1128.33 140.233 1128.33 153.3C1128.33 166.133 1126.58 179.2 1123.08 192.5C1119.81 205.8 1117.36 215.367 1115.73 221.2C1114.33 226.8 1113.63 231.467 1113.63 235.2C1113.63 238.933 1114.91 240.8 1117.48 240.8C1120.98 240.8 1125.3 238.583 1130.43 234.15C1135.56 229.717 1140.7 224.933 1145.83 219.8C1150.96 214.433 1155.63 209.533 1159.83 205.1C1164.26 200.667 1167.3 198.45 1168.93 198.45C1172.2 198.45 1173.83 202.417 1173.83 210.35C1173.83 226.683 1165.78 242.433 1149.68 257.6C1122.61 273.467 1105.35 281.4 1097.88 281.4C1097.18 281.4 1096.71 281.283 1096.48 281.05C1077.81 281.05 1068.48 266.117 1068.48 236.25C1068.48 223.417 1069.65 211.633 1071.98 200.9C1074.55 190.167 1076.41 182.35 1077.58 177.45C1078.75 172.55 1079.33 167.533 1079.33 162.4C1079.33 154 1074.43 149.8 1064.63 149.8C1055.06 149.8 1045.85 157.033 1036.98 171.5C1028.35 185.733 1022.51 200.55 1019.48 215.95V218.4C1019.48 226.333 1020.65 234.5 1022.98 242.9C1025.55 251.3 1026.83 257.133 1026.83 260.4C1026.83 268.333 1016.91 276.15 997.079 283.85C994.046 285.017 991.362 285.6 989.029 285.6C983.196 285.6 979.112 282.567 976.779 276.5C974.679 270.433 973.629 260.983 973.629 248.15C973.629 215.017 974.912 191.1 977.479 176.4C980.979 154.467 988.912 134.05 1001.28 115.15C1005.48 108.617 1010.03 105.35 1014.93 105.35ZM1237.92 241.85C1256.12 241.85 1273.73 234.617 1290.77 220.15C1297.07 214.783 1302.2 209.883 1306.17 205.45C1310.13 200.783 1313.17 198.45 1315.27 198.45C1318.53 198.45 1320.17 201.717 1320.17 208.25C1320.17 214.783 1318.42 222.133 1314.92 230.3C1311.42 238.233 1305.58 246.05 1297.42 253.75C1277.35 272.65 1249.82 282.1 1214.82 282.1C1187.05 282.1 1168.15 272.067 1158.12 252C1154.62 245 1152.87 234.967 1152.87 221.9C1152.87 208.833 1155.43 195.3 1160.57 181.3C1165.7 167.067 1172.47 154.817 1180.87 144.55C1189.5 134.283 1199.42 126.35 1210.62 120.75C1221.82 114.917 1233.72 112 1246.32 112C1259.15 112 1268.95 115.15 1275.72 121.45C1282.72 127.75 1286.22 135.917 1286.22 145.95C1286.22 155.983 1283.65 164.267 1278.52 170.8C1273.62 177.1 1267.2 182.467 1259.27 186.9C1251.33 191.1 1242.47 194.95 1232.67 198.45C1223.1 201.717 1213.65 205.45 1204.32 209.65V218.4C1204.55 226.8 1208.05 232.75 1214.82 236.25C1221.58 239.75 1229.28 241.617 1237.92 241.85ZM1231.97 143.15C1219.83 143.15 1211.43 157.267 1206.77 185.5C1211.67 182.233 1216.22 179.317 1220.42 176.75C1224.85 174.183 1228.7 171.733 1231.97 169.4C1238.97 164.267 1242.58 158.433 1242.82 151.9C1242.82 146.067 1239.2 143.15 1231.97 143.15Z" fill="url(#paint0_linear_1_2)" fill-opacity="0.56"/>
<defs>
<linearGradient id="paint0_linear_1_2" x1="7" y1="123.5" x2="1347" y2="123.5" gradientUnits="userSpaceOnUse">
<stop offset="0.315" stop-color="#FFEF00"/>
<stop offset="0.54" stop-color="#E9901A"/>
</linearGradient>
</defs>
</svg>
