<svg width="439" height="62" viewBox="0 0 439 62" fill="none" xmlns="http://www.w3.org/2000/svg">
<path d="M46.2191 43.624C46.2191 46.632 45.5151 49.224 44.1071 51.4C42.7631 53.512 40.5231 55.464 37.3871 57.256C35.2751 58.536 32.8111 59.496 29.9951 60.136C27.1791 60.776 24.3311 61.096 21.4511 61.096C18.5071 61.096 14.8591 60.136 10.5071 58.216C7.37113 56.68 4.87513 54.856 3.01913 52.744C1.22713 50.632 0.331125 48.328 0.331125 45.832C0.331125 44.104 0.715125 42.856 1.48313 42.088C2.25113 41.256 3.49913 40.84 5.22713 40.84C6.12313 40.84 7.05113 41.224 8.01113 41.992C8.97113 42.696 9.54713 43.4 9.73913 44.104C10.6351 46.728 12.2031 48.744 14.4431 50.152C16.6831 51.496 19.4671 52.168 22.7951 52.168C26.6351 52.168 29.8351 51.464 32.3951 50.056C35.0191 48.648 36.3311 46.76 36.3311 44.392C36.3311 42.088 34.9231 40.04 32.1071 38.248C29.2911 36.456 26.4111 35.208 23.4671 34.504C19.2431 33.352 15.4991 31.976 12.2351 30.376C8.84313 28.712 6.31513 26.664 4.65113 24.232C2.98713 21.8 2.15513 19.24 2.15513 16.552C2.15513 14.056 3.01913 11.528 4.74713 8.96799C6.47513 6.344 8.52313 4.456 10.8911 3.304C12.1711 2.664 14.3471 1.992 17.4191 1.288C20.5551 0.519999 22.8271 0.136 24.2351 0.136C26.0911 0.136 28.1391 0.359999 30.3791 0.807997C32.6191 1.256 34.4431 1.896 35.8511 2.72799C38.6671 4.328 40.7471 5.768 42.0911 7.048C43.4351 8.328 44.1071 9.928 44.1071 11.848C44.1071 13 43.6591 14.024 42.7631 14.92C41.9311 15.816 40.4591 16.264 38.3471 16.264C37.8351 16.264 37.3231 16.04 36.8111 15.592C36.2991 15.144 35.6591 14.472 34.8911 13.576C33.8671 12.232 32.8751 11.336 31.9151 10.888C30.9551 10.568 29.5471 10.216 27.6911 9.832C25.8991 9.448 24.2991 9.256 22.8911 9.256C21.3551 9.256 19.7551 9.576 18.0911 10.216C16.4271 10.856 15.0191 11.784 13.8671 13C12.7791 14.152 12.2351 15.496 12.2351 17.032C12.2351 18.312 12.8111 19.432 13.9631 20.392C15.1791 21.288 16.6191 22.024 18.2831 22.6C20.2031 23.368 22.2831 24.04 24.5231 24.616C27.4671 25.512 29.8671 26.344 31.7231 27.112C33.6431 27.816 35.4991 28.712 37.2911 29.8C40.4271 31.656 42.6991 33.576 44.1071 35.56C45.5151 37.48 46.2191 40.168 46.2191 43.624ZM67.1014 5.32C67.1014 7.176 67.0374 9.64 66.9094 12.712L66.8134 18.952C66.8134 25.032 67.2614 30.12 68.1574 34.216C69.4374 39.976 71.3574 44.424 73.9174 47.56C76.2854 50.312 79.1974 51.688 82.6534 51.688C85.3414 51.688 87.7414 50.888 89.8534 49.288C91.9654 47.624 93.5974 45.576 94.7494 43.144C96.6694 39.176 97.6294 34.28 97.6294 28.456C97.6294 24.936 97.4054 20.776 96.9574 15.976C96.5734 10.6 96.3814 6.568 96.3814 3.88C96.3814 2.472 97.2134 1.576 98.8774 1.192C100.541 0.743996 102.269 0.519995 104.061 0.519995C104.701 0.519995 105.437 0.935995 106.269 1.768C107.101 2.6 107.517 3.496 107.517 4.456C107.517 6.376 107.421 8.2 107.229 9.928C107.101 11.848 107.037 13.192 107.037 13.96C107.037 16.392 107.165 19.784 107.421 24.136C107.485 25.224 107.549 26.536 107.613 28.072C107.677 29.608 107.709 31.368 107.709 33.352C107.709 37.704 106.653 42.056 104.541 46.408C102.493 50.696 99.6134 54.248 95.9014 57.064C92.1894 59.816 87.9974 61.192 83.3254 61.192C76.1574 61.192 70.5574 58.888 66.5254 54.28C62.4934 49.608 59.7414 43.592 58.2694 36.232C57.4374 32.008 56.8934 27.592 56.6374 22.984C56.4454 18.376 56.3494 12.2 56.3494 4.456C56.3494 3.432 56.8294 2.472 57.7894 1.576C58.8134 0.679998 59.9014 0.231998 61.0534 0.231998C65.0854 0.231998 67.1014 1.928 67.1014 5.32ZM160.806 7.048C160.806 5.192 161.222 3.592 162.054 2.248C162.95 0.839998 164.262 0.136 165.99 0.136C167.462 0.136 168.774 0.424 169.926 1C171.078 1.576 171.654 2.536 171.654 3.88C171.654 6.504 171.526 10.184 171.27 14.92C171.014 19.528 170.886 22.952 170.886 25.192C170.886 28.712 171.014 33.416 171.27 39.304C171.526 44.936 171.654 49.064 171.654 51.688C171.654 53.8 171.622 55.368 171.558 56.392C171.558 57.416 170.982 58.44 169.83 59.464C168.742 60.424 167.046 60.904 164.742 60.904C163.526 60.904 162.47 60.712 161.574 60.328C160.742 59.88 160.166 59.4 159.846 58.888C156.838 55.24 152.454 49.032 146.694 40.264C140.23 30.472 134.95 22.984 130.854 17.8C131.366 22.408 131.622 28.04 131.622 34.696C131.622 37.64 131.558 41.48 131.43 46.216C131.366 50.888 131.238 53.96 131.046 55.432C130.79 57.288 130.214 58.728 129.318 59.752C128.486 60.712 127.142 61.192 125.286 61.192C123.878 61.192 122.822 60.808 122.118 60.04C121.478 59.208 121.094 57.8 120.966 55.816C120.902 53.192 121.062 49.256 121.446 44.008C121.51 43.176 121.606 41.736 121.734 39.688C121.862 37.64 121.926 35.816 121.926 34.216C121.926 29.8 121.702 24.744 121.254 19.048C120.87 12.776 120.678 8.136 120.678 5.128C120.678 3.592 121.222 2.408 122.31 1.576C123.462 0.743998 124.774 0.327997 126.246 0.327997C127.526 0.327997 128.87 0.647997 130.278 1.288C135.782 8.2 143.238 18.504 152.646 32.2L161.67 46.024C161.734 45 161.766 43.56 161.766 41.704C161.766 38.44 161.702 34.92 161.574 31.144C161.446 27.368 161.35 24.808 161.286 23.464C160.966 17.256 160.806 11.784 160.806 7.048Z" fill="#F7F430"/>
<path d="M228.563 43.624C228.563 46.632 227.859 49.224 226.451 51.4C225.107 53.512 222.867 55.464 219.731 57.256C217.619 58.536 215.155 59.496 212.339 60.136C209.523 60.776 206.675 61.096 203.795 61.096C200.851 61.096 197.203 60.136 192.851 58.216C189.715 56.68 187.219 54.856 185.363 52.744C183.571 50.632 182.675 48.328 182.675 45.832C182.675 44.104 183.059 42.856 183.827 42.088C184.595 41.256 185.843 40.84 187.571 40.84C188.467 40.84 189.395 41.224 190.355 41.992C191.315 42.696 191.891 43.4 192.083 44.104C192.979 46.728 194.547 48.744 196.787 50.152C199.027 51.496 201.811 52.168 205.139 52.168C208.979 52.168 212.179 51.464 214.739 50.056C217.363 48.648 218.675 46.76 218.675 44.392C218.675 42.088 217.267 40.04 214.451 38.248C211.635 36.456 208.755 35.208 205.811 34.504C201.587 33.352 197.843 31.976 194.579 30.376C191.187 28.712 188.659 26.664 186.995 24.232C185.331 21.8 184.499 19.24 184.499 16.552C184.499 14.056 185.363 11.528 187.091 8.96799C188.819 6.344 190.867 4.456 193.235 3.304C194.515 2.664 196.691 1.992 199.763 1.288C202.899 0.519999 205.171 0.136 206.579 0.136C208.371 0.136 210.259 0.359999 212.243 0.807997C214.227 1.256 215.923 1.896 217.331 2.72799C220.147 4.328 222.227 5.768 223.571 7.048C224.915 8.328 225.587 9.928 225.587 11.848C225.587 13 225.139 14.024 224.243 14.92C223.411 15.816 221.939 16.264 219.827 16.264C219.315 16.264 218.803 16.04 218.291 15.592C217.779 15.144 217.139 14.472 216.371 13.576C215.347 12.232 214.355 11.336 213.395 10.888C212.371 10.504 211.091 10.152 209.555 9.832C208.019 9.448 206.579 9.256 205.235 9.256C203.699 9.256 202.099 9.576 200.435 10.216C198.771 10.856 197.363 11.784 196.211 13C195.123 14.152 194.579 15.496 194.579 17.032C194.579 18.312 195.155 19.432 196.307 20.392C197.523 21.288 198.963 22.024 200.627 22.6C202.547 23.368 204.627 24.04 206.867 24.616C209.811 25.512 212.211 26.344 214.067 27.112C215.987 27.816 217.843 28.712 219.635 29.8C222.771 31.656 225.043 33.576 226.451 35.56C227.859 37.48 228.563 40.168 228.563 43.624ZM281.701 26.632C281.637 25.608 281.605 24.072 281.605 22.024V18.376C281.605 15.944 281.541 14.12 281.413 12.904C281.285 11.88 281.221 9.224 281.221 4.936C281.221 3.4 281.669 2.216 282.565 1.384C283.525 0.487995 284.805 0.0399952 286.405 0.0399952C288.453 0.0399952 289.829 0.487995 290.533 1.384C291.237 2.27999 291.589 3.752 291.589 5.8V9.448L291.493 20.008C291.429 22.056 291.397 25.128 291.397 29.224L291.493 37.096C291.557 38.312 291.589 40.008 291.589 42.184C291.589 43.912 291.653 46.376 291.781 49.576C291.909 52.52 291.973 54.728 291.973 56.2C291.973 57.416 291.621 58.536 290.917 59.56C290.277 60.584 289.381 61.096 288.229 61.096C283.749 61.096 281.509 59.592 281.509 56.584C281.509 54.92 281.573 53.064 281.701 51.016C281.829 49.544 281.893 47.304 281.893 44.296C281.893 42.184 281.829 39.144 281.701 35.176C278.693 35.432 273.509 35.56 266.149 35.56C261.541 35.56 257.957 35.56 255.397 35.56C252.837 35.496 250.981 35.336 249.829 35.08L249.733 46.12C249.733 46.824 249.893 48.712 250.213 51.784C250.533 53.832 250.693 55.624 250.693 57.16C250.693 58.12 250.117 59.048 248.965 59.944C247.877 60.776 246.853 61.192 245.893 61.192C243.589 61.192 242.021 60.648 241.189 59.56C240.357 58.408 239.941 56.68 239.941 54.376L239.845 46.792C239.781 45.896 239.749 44.648 239.749 43.048C239.749 40.68 239.685 37.448 239.557 33.352C239.429 29.64 239.365 26.952 239.365 25.288C239.365 22.792 239.429 19.304 239.557 14.824C239.685 10.6 239.749 7.46399 239.749 5.41599C239.749 3.368 240.261 1.992 241.285 1.288C242.309 0.583998 243.461 0.231998 244.741 0.231998C248.325 0.231998 250.117 1.416 250.117 3.784C250.117 8.008 250.021 12.04 249.829 15.88C249.701 20.744 249.637 24.296 249.637 26.536C251.493 26.984 253.445 27.272 255.493 27.4C257.541 27.528 260.421 27.592 264.133 27.592C271.685 27.592 277.541 27.272 281.701 26.632ZM311.402 61.288C309.482 61.288 308.138 60.712 307.37 59.56C306.666 58.408 306.314 56.776 306.314 54.664L306.41 42.184L306.314 40.264C305.994 34.184 305.834 29.16 305.834 25.192L306.218 13.768L306.314 8.008C306.314 6.088 306.378 4.616 306.506 3.592C306.634 2.568 307.05 1.736 307.754 1.096C308.458 0.455999 309.578 0.136 311.114 0.136C313.034 0.136 314.41 0.615999 315.242 1.576C316.074 2.472 316.49 4.04 316.49 6.27999L316.394 8.296C316.138 13.416 316.01 17.288 316.01 19.912C316.01 22.792 316.074 26.184 316.202 30.088C316.33 33.928 316.426 36.648 316.49 38.248C316.81 45.096 316.97 50.984 316.97 55.912C316.97 57.832 316.554 59.208 315.722 60.04C314.954 60.872 313.514 61.288 311.402 61.288ZM370.899 7.048C370.899 5.192 371.315 3.592 372.147 2.248C373.043 0.839998 374.355 0.136 376.083 0.136C377.555 0.136 378.867 0.424 380.019 1C381.171 1.576 381.747 2.536 381.747 3.88C381.747 6.504 381.619 10.184 381.363 14.92C381.107 19.528 380.979 22.952 380.979 25.192C380.979 28.712 381.107 33.416 381.363 39.304C381.619 44.936 381.747 49.064 381.747 51.688C381.747 53.8 381.715 55.368 381.651 56.392C381.651 57.416 381.075 58.44 379.923 59.464C378.835 60.424 377.139 60.904 374.835 60.904C373.619 60.904 372.563 60.712 371.667 60.328C370.835 59.88 370.259 59.4 369.939 58.888C366.931 55.24 362.547 49.032 356.787 40.264C350.323 30.472 345.043 22.984 340.947 17.8C341.459 22.408 341.715 28.04 341.715 34.696C341.715 37.64 341.651 41.48 341.523 46.216C341.459 50.888 341.331 53.96 341.139 55.432C340.883 57.288 340.307 58.728 339.411 59.752C338.579 60.712 337.235 61.192 335.379 61.192C333.971 61.192 332.915 60.808 332.211 60.04C331.571 59.208 331.187 57.8 331.059 55.816C330.995 53.192 331.155 49.256 331.539 44.008C331.603 43.176 331.699 41.736 331.827 39.688C331.955 37.64 332.019 35.816 332.019 34.216C332.019 29.8 331.795 24.744 331.347 19.048C330.963 12.776 330.771 8.136 330.771 5.128C330.771 3.592 331.315 2.408 332.403 1.576C333.555 0.743998 334.867 0.327997 336.339 0.327997C337.619 0.327997 338.963 0.647997 340.371 1.288C345.875 8.2 353.331 18.504 362.739 32.2L371.763 46.024C371.827 45 371.859 43.56 371.859 41.704C371.859 38.44 371.795 34.92 371.667 31.144C371.539 27.368 371.443 24.808 371.379 23.464C371.059 17.256 370.899 11.784 370.899 7.048ZM435.201 48.808C436.417 48.808 437.313 49.288 437.889 50.248C438.529 51.144 438.849 52.136 438.849 53.224C438.849 54.568 438.625 55.528 438.177 56.104C437.793 56.616 436.993 57.16 435.777 57.736C433.217 58.952 430.337 59.816 427.137 60.328C424.001 60.84 420.065 61.096 415.329 61.096C409.633 61.096 405.249 60.136 402.177 58.216C399.169 56.232 397.185 53.768 396.225 50.824C395.265 47.88 394.785 44.456 394.785 40.552V34.504C394.785 30.344 394.881 26.344 395.073 22.504C395.329 18.664 395.809 14.184 396.513 9.064C396.961 5.992 398.177 3.784 400.161 2.44C402.145 1.032 404.321 0.327997 406.689 0.327997C409.249 0.327997 412.769 0.263998 417.249 0.136L425.601 0.0399952C428.993 0.0399952 431.489 0.135996 433.089 0.327997C435.009 0.711996 436.417 1.16 437.313 1.672C438.273 2.12 438.753 2.92 438.753 4.07199C438.753 5.352 438.305 6.6 437.409 7.816C436.577 9.032 435.297 9.64 433.569 9.64C431.585 9.64 428.737 9.512 425.025 9.256C421.313 9 418.529 8.872 416.673 8.872C414.369 8.872 412.513 8.968 411.105 9.16C409.313 9.288 408.033 9.512 407.265 9.832C406.497 10.152 406.049 10.696 405.921 11.464C405.025 18.056 404.577 22.92 404.577 26.056C405.985 26.248 407.489 26.344 409.089 26.344C411.137 26.344 414.561 26.12 419.361 25.672C422.881 25.352 425.793 25.192 428.097 25.192C429.569 25.192 430.657 25.448 431.361 25.96C432.065 26.472 432.417 27.176 432.417 28.072C432.417 29.48 432.065 30.568 431.361 31.336C430.657 32.104 429.377 32.68 427.521 33.064C425.281 33.512 422.369 33.864 418.785 34.12C415.265 34.376 411.905 34.504 408.705 34.504C407.489 34.504 405.985 34.44 404.193 34.312C404.193 38.536 404.385 41.864 404.769 44.296C405.217 46.728 406.113 48.616 407.457 49.96C408.865 51.304 410.977 51.976 413.793 51.976C420.129 51.976 425.185 51.4 428.961 50.248C431.649 49.288 433.729 48.808 435.201 48.808Z" fill="#FFBB5D"/>
</svg>
