<svg width="57" height="12" viewBox="0 0 57 12" fill="none" xmlns="http://www.w3.org/2000/svg">
<path d="M2.71875 11.5909C2.12784 11.5909 1.63494 11.5099 1.24006 11.348C0.848011 11.1889 0.549716 10.9716 0.34517 10.696C0.143466 10.4205 0.0326705 10.1108 0.0127841 9.76705L1.73438 9.54119C1.76562 9.67472 1.82528 9.7983 1.91335 9.91193C2.00426 10.0256 2.13352 10.1165 2.30114 10.1847C2.47159 10.2528 2.69176 10.2869 2.96165 10.2869C3.35653 10.2869 3.70028 10.1903 3.9929 9.99716C4.28551 9.80682 4.46591 9.48722 4.53409 9.03835L4.73011 7.84091H4.65341C4.54545 8.02273 4.39773 8.1946 4.21023 8.35653C4.02557 8.51847 3.79972 8.65057 3.53267 8.75284C3.26847 8.85511 2.96307 8.90625 2.61648 8.90625C2.12216 8.90625 1.69318 8.79261 1.32955 8.56534C0.96875 8.33523 0.707386 7.98437 0.545455 7.51278C0.386364 7.03835 0.366477 6.43892 0.485795 5.71449C0.610795 4.97301 0.835227 4.35369 1.15909 3.85653C1.48295 3.35937 1.86648 2.98722 2.30966 2.74006C2.75284 2.4929 3.21449 2.36932 3.6946 2.36932C4.06108 2.36932 4.35653 2.43182 4.58097 2.55682C4.80824 2.67898 4.98295 2.83239 5.10511 3.01705C5.22727 3.19886 5.31392 3.37784 5.36506 3.55398H5.4375L5.61648 2.45455H7.41903L6.3196 9.06392C6.23153 9.62358 6.01989 10.0895 5.68466 10.4616C5.35227 10.8366 4.9304 11.1179 4.41903 11.3054C3.90767 11.4957 3.34091 11.5909 2.71875 11.5909ZM3.40057 7.54261C3.69034 7.54261 3.95028 7.47017 4.1804 7.32528C4.41335 7.17756 4.60795 6.96733 4.7642 6.6946C4.92045 6.41903 5.02983 6.08949 5.09233 5.70597C5.15483 5.32244 5.15341 4.99006 5.08807 4.70881C5.02557 4.42472 4.90341 4.20455 4.72159 4.0483C4.54261 3.89205 4.30682 3.81392 4.0142 3.81392C3.71307 3.81392 3.44886 3.89489 3.22159 4.05682C2.99432 4.21591 2.8054 4.4375 2.65483 4.72159C2.5071 5.00568 2.40341 5.33381 2.34375 5.70597C2.28125 6.08381 2.27841 6.41051 2.33523 6.68608C2.39489 6.95881 2.51278 7.17045 2.68892 7.32102C2.86506 7.46875 3.10227 7.54261 3.40057 7.54261Z" fill="#E75757"/>
<path d="M13.9901 4.32102L12.3409 4.4233C12.3324 4.27841 12.2926 4.14915 12.2216 4.03551C12.1534 3.91903 12.0526 3.8267 11.919 3.75852C11.7884 3.69034 11.6236 3.65625 11.4247 3.65625C11.1264 3.65625 10.8608 3.72443 10.6278 3.8608C10.3949 3.99716 10.2628 4.17187 10.2315 4.38494C10.206 4.52131 10.2415 4.63636 10.3381 4.73011C10.4347 4.82386 10.6293 4.90341 10.9219 4.96875L12.0724 5.20739C12.6861 5.33807 13.1293 5.5554 13.402 5.85938C13.6776 6.16335 13.7756 6.56108 13.696 7.05256C13.625 7.47017 13.4418 7.83523 13.1463 8.14773C12.8509 8.45739 12.4759 8.69886 12.0213 8.87216C11.5668 9.04261 11.0625 9.12784 10.5085 9.12784C9.61932 9.12784 8.94318 8.94602 8.48011 8.58239C8.01705 8.21875 7.79403 7.72585 7.81108 7.10369L9.58381 7.00994C9.59801 7.27699 9.69176 7.47869 9.86506 7.61506C10.0384 7.74858 10.2756 7.81676 10.5767 7.8196C10.9148 7.82528 11.2017 7.75568 11.4375 7.6108C11.6761 7.46307 11.8111 7.28409 11.8423 7.07386C11.8651 6.92614 11.8224 6.80682 11.7145 6.71591C11.6094 6.625 11.4162 6.54972 11.1349 6.49006L10.044 6.2642C9.42472 6.13636 8.98011 5.90767 8.71023 5.57812C8.44034 5.24858 8.34801 4.82955 8.43324 4.32102C8.50142 3.91477 8.67045 3.56676 8.94034 3.27699C9.21307 2.98438 9.56392 2.75994 9.9929 2.60369C10.4247 2.44744 10.9119 2.36932 11.4545 2.36932C12.304 2.36932 12.9432 2.54403 13.3722 2.89347C13.804 3.2429 14.0099 3.71875 13.9901 4.32102ZM16.9656 5.21591L16.3349 9H14.5238L15.9727 0.272727H17.7326L17.1871 3.60938H17.2596C17.4698 3.22301 17.7582 2.92045 18.1246 2.7017C18.4911 2.48011 18.9244 2.36932 19.4244 2.36932C19.8789 2.36932 20.2582 2.46875 20.5621 2.66761C20.869 2.86364 21.0863 3.14631 21.2141 3.51562C21.342 3.8821 21.3633 4.32102 21.2781 4.83239L20.5792 9H18.7681L19.4073 5.15625C19.4727 4.75284 19.4201 4.43892 19.2496 4.21449C19.082 3.99006 18.815 3.87784 18.4485 3.87784C18.2013 3.87784 17.9741 3.9304 17.7667 4.03551C17.5593 4.14062 17.3846 4.29403 17.2425 4.49574C17.1033 4.6946 17.011 4.93466 16.9656 5.21591ZM24.9652 9.12784C24.2947 9.12784 23.7393 8.99148 23.299 8.71875C22.8587 8.44318 22.549 8.05398 22.37 7.55114C22.1939 7.04545 22.1641 6.44744 22.2805 5.7571C22.3942 5.08381 22.6229 4.4929 22.9666 3.98438C23.3132 3.47585 23.7479 3.07955 24.2706 2.79545C24.7933 2.51136 25.3757 2.36932 26.0178 2.36932C26.4496 2.36932 26.8402 2.43892 27.1896 2.57812C27.5419 2.71449 27.8345 2.92187 28.0675 3.20028C28.3004 3.47585 28.4595 3.82102 28.5447 4.2358C28.6328 4.65057 28.6314 5.13636 28.5405 5.69318L28.4595 6.19176H22.9368L23.1115 5.06676H26.9297C26.9723 4.8054 26.9553 4.57386 26.8786 4.37216C26.8018 4.17045 26.674 4.01278 26.495 3.89915C26.3161 3.78267 26.0959 3.72443 25.8345 3.72443C25.5675 3.72443 25.3175 3.78977 25.0845 3.92045C24.8516 4.05114 24.6555 4.22301 24.4964 4.43608C24.3402 4.64631 24.2393 4.875 24.1939 5.12216L23.9936 6.23864C23.9368 6.58239 23.9482 6.8679 24.0277 7.09517C24.1101 7.32244 24.2521 7.4929 24.4538 7.60653C24.6555 7.71733 24.9112 7.77273 25.2209 7.77273C25.4226 7.77273 25.6115 7.74432 25.7876 7.6875C25.9666 7.63068 26.1257 7.54688 26.2649 7.43608C26.4041 7.32244 26.5178 7.18182 26.6058 7.0142L28.2635 7.125C28.1101 7.52841 27.8771 7.88068 27.5646 8.18182C27.2521 8.48011 26.8757 8.71307 26.4354 8.88068C25.9979 9.04545 25.5078 9.12784 24.9652 9.12784ZM32.1488 9.12784C31.4783 9.12784 30.9229 8.99148 30.4826 8.71875C30.0423 8.44318 29.7326 8.05398 29.5536 7.55114C29.3775 7.04545 29.3477 6.44744 29.4641 5.7571C29.5778 5.08381 29.8065 4.4929 30.1502 3.98438C30.4968 3.47585 30.9315 3.07955 31.4542 2.79545C31.9769 2.51136 32.5593 2.36932 33.2013 2.36932C33.6332 2.36932 34.0238 2.43892 34.3732 2.57812C34.7255 2.71449 35.0181 2.92187 35.2511 3.20028C35.484 3.47585 35.6431 3.82102 35.7283 4.2358C35.8164 4.65057 35.815 5.13636 35.7241 5.69318L35.6431 6.19176H30.1204L30.2951 5.06676H34.1133C34.1559 4.8054 34.1388 4.57386 34.0621 4.37216C33.9854 4.17045 33.8576 4.01278 33.6786 3.89915C33.4996 3.78267 33.2795 3.72443 33.0181 3.72443C32.7511 3.72443 32.5011 3.78977 32.2681 3.92045C32.0352 4.05114 31.8391 4.22301 31.68 4.43608C31.5238 4.64631 31.4229 4.875 31.3775 5.12216L31.1772 6.23864C31.1204 6.58239 31.1317 6.8679 31.2113 7.09517C31.2937 7.32244 31.4357 7.4929 31.6374 7.60653C31.8391 7.71733 32.0948 7.77273 32.4045 7.77273C32.6062 7.77273 32.7951 7.74432 32.9712 7.6875C33.1502 7.63068 33.3093 7.54688 33.4485 7.43608C33.5877 7.32244 33.7013 7.18182 33.7894 7.0142L35.4471 7.125C35.2937 7.52841 35.0607 7.88068 34.7482 8.18182C34.4357 8.48011 34.0593 8.71307 33.619 8.88068C33.1815 9.04545 32.6914 9.12784 32.1488 9.12784ZM36.3665 9L37.4574 2.45455H39.2173L39.0256 3.59659H39.0938C39.2812 3.19034 39.5327 2.88352 39.848 2.67614C40.1662 2.46591 40.5085 2.3608 40.875 2.3608C40.9659 2.3608 41.0611 2.36648 41.1605 2.37784C41.2628 2.38636 41.3537 2.40057 41.4332 2.42045L41.1605 4.03551C41.081 4.0071 40.9673 3.98437 40.8196 3.96733C40.6747 3.94744 40.5369 3.9375 40.4062 3.9375C40.142 3.9375 39.8963 3.99574 39.669 4.11222C39.4418 4.22585 39.25 4.38494 39.0938 4.58949C38.9403 4.79403 38.8395 5.02983 38.7912 5.29688L38.1818 9H36.3665ZM43.9379 9.12784C43.2674 9.12784 42.712 8.99148 42.2717 8.71875C41.8313 8.44318 41.5217 8.05398 41.3427 7.55114C41.1665 7.04545 41.1367 6.44744 41.2532 5.7571C41.3668 5.08381 41.5955 4.4929 41.9393 3.98438C42.2859 3.47585 42.7205 3.07955 43.2433 2.79545C43.766 2.51136 44.3484 2.36932 44.9904 2.36932C45.4222 2.36932 45.8129 2.43892 46.1623 2.57812C46.5146 2.71449 46.8072 2.92187 47.0401 3.20028C47.2731 3.47585 47.4322 3.82102 47.5174 4.2358C47.6055 4.65057 47.604 5.13636 47.5131 5.69318L47.4322 6.19176H41.9094L42.0842 5.06676H45.9023C45.945 4.8054 45.9279 4.57386 45.8512 4.37216C45.7745 4.17045 45.6467 4.01278 45.4677 3.89915C45.2887 3.78267 45.0685 3.72443 44.8072 3.72443C44.5401 3.72443 44.2901 3.78977 44.0572 3.92045C43.8242 4.05114 43.6282 4.22301 43.4691 4.43608C43.3129 4.64631 43.212 4.875 43.1665 5.12216L42.9663 6.23864C42.9094 6.58239 42.9208 6.8679 43.0004 7.09517C43.0827 7.32244 43.2248 7.4929 43.4265 7.60653C43.6282 7.71733 43.8839 7.77273 44.1935 7.77273C44.3952 7.77273 44.5842 7.74432 44.7603 7.6875C44.9393 7.63068 45.0984 7.54688 45.2376 7.43608C45.3768 7.32244 45.4904 7.18182 45.5785 7.0142L47.2362 7.125C47.0827 7.52841 46.8498 7.88068 46.5373 8.18182C46.2248 8.48011 45.8484 8.71307 45.408 8.88068C44.9705 9.04545 44.4805 9.12784 43.9379 9.12784ZM48.6999 11.4545C48.467 11.4545 48.2539 11.4361 48.0607 11.3991C47.8675 11.3651 47.7085 11.321 47.5835 11.267L48.2227 9.91193C48.4244 9.97727 48.6076 10.0114 48.7724 10.0142C48.94 10.017 49.0934 9.97443 49.2326 9.88636C49.3718 9.7983 49.4996 9.65341 49.6161 9.4517L49.7781 9.17472L48.5508 2.45455H50.3917L50.9457 7.26989H51.0138L53.1829 2.45455H55.1729L51.4272 9.70739C51.2425 10.0625 51.0238 10.3707 50.771 10.6321C50.521 10.8935 50.2241 11.0952 49.8803 11.2372C49.5394 11.3821 49.146 11.4545 48.6999 11.4545Z" fill="white"/>
<path d="M55.7429 9.1108C55.456 9.1108 55.2202 9.01136 55.0355 8.8125C54.8537 8.61364 54.7713 8.37216 54.7884 8.08807C54.8082 7.80682 54.9261 7.5696 55.142 7.37642C55.3608 7.1804 55.6122 7.08239 55.8963 7.08239C56.169 7.08239 56.3991 7.1804 56.5866 7.37642C56.7741 7.57244 56.8565 7.80966 56.8338 8.08807C56.8196 8.27557 56.7585 8.44744 56.6506 8.60369C56.5455 8.7571 56.4119 8.88068 56.25 8.97443C56.0881 9.06534 55.919 9.1108 55.7429 9.1108Z" fill="#FF0000"/>
</svg>
